<svg xmlns="http://www.w3.org/2000/svg" viewBox="0 0 32 32">
  <!-- Purple Space Invader Alien -->
  <rect width="32" height="32" fill="#000000"/>
  
  <!-- Top antennae (curved upward) -->
  <rect x="9" y="4" width="2" height="2" fill="#582C83"/>
  <rect x="11" y="6" width="2" height="2" fill="#582C83"/>
  <rect x="19" y="6" width="2" height="2" fill="#582C83"/>
  <rect x="21" y="4" width="2" height="2" fill="#582C83"/>
  
  <!-- Top of head -->
  <rect x="10" y="8" width="12" height="2" fill="#582C83"/>
  
  <!-- Main body (wider in middle) -->
  <rect x="6" y="10" width="20" height="2" fill="#582C83"/>
  <rect x="8" y="12" width="16" height="6" fill="#582C83"/>
  <rect x="6" y="18" width="20" height="2" fill="#582C83"/>
  
  <!-- Eyes (black squares) -->
  <rect x="10" y="13" width="3" height="3" fill="#000000"/>
  <rect x="19" y="13" width="3" height="3" fill="#000000"/>
  
  <!-- Side arms (extending outward) -->
  <rect x="4" y="14" width="2" height="4" fill="#582C83"/>
  <rect x="26" y="14" width="2" height="4" fill="#582C83"/>
  
  <!-- Bottom section -->
  <rect x="8" y="20" width="16" height="2" fill="#582C83"/>
  
  <!-- Bottom legs/feet -->
  <rect x="10" y="22" width="4" height="4" fill="#582C83"/>
  <rect x="18" y="22" width="4" height="4" fill="#582C83"/>
  <rect x="14" y="24" width="4" height="2" fill="#582C83"/>
</svg>

